# xmcd CD database file
#
# Track frame offsets:
#	150
#	15890
#	34772
#	57628
#	74157
#	93700
#	111597
#	129385
#	145204
#	163587
#	182263
#
# Disc length: 2504 seconds
#
# Revision: 1
# Processed by: cddbd v1.5.2PL0 Copyright (c) Steve Scherf et al.
# Submitted via: CDex 1.51
#
DISCID=9c09c60b
DTITLE=Tugçe San - Neredesin
DYEAR=1996
DGENRE=Electronic
TTITLE0=Neredesin
TTITLE1=Bile Bile Sevdim [Derdine Dostom]
TTITLE2=Gonesten Sicak
TTITLE3=Cennetim Ol
TTITLE4=Ha Ha Ha
TTITLE5=Bize Neler Oldu?
TTITLE6=Kendimi Seçtim
TTITLE7=Eloglu
TTITLE8=Prenses
TTITLE9=Bu Ask Yarim Kalamaz
TTITLE10=Gonesten Sicak (Rap)
EXTD=türkish music YEAR: 1996
EXTT0=
EXTT1=
EXTT2=
EXTT3=
EXTT4=
EXTT5=
EXTT6=
EXTT7=
EXTT8=
EXTT9=
EXTT10=
PLAYORDER=
